<svg width="164" height="114" viewBox="0 0 164 114" fill="none" xmlns="http://www.w3.org/2000/svg">
<path d="M163.929 80.0851C163.459 76.267 161.524 72.955 158.164 70.2291C158.122 70.1783 158.076 70.1311 158.026 70.0882L157.856 69.9665L157.802 69.928L156.018 68.6468L155.957 68.6019L155.729 68.4418C155.646 68.3931 155.557 68.3554 155.464 68.3297C149.82 64.9696 140.476 62.6153 126.181 67.6602C122.769 61.9202 122.382 57.3205 124.666 50.2737C125.072 49.0469 124.694 48.2365 123.477 47.7112C121.03 46.6701 117.68 47.2019 115.303 47.8297C114.195 48.118 113.528 48.7458 113.317 49.6971C111.811 56.744 107.436 63.1823 103.205 69.3963L102.955 69.7615C100.347 64.2329 100.889 59.9503 102.705 54.5851C103.067 53.5152 102.782 52.8041 101.779 52.2724C98.9797 50.8278 94.7804 51.8208 93.1084 52.314C90.9879 52.9323 88.7137 58.6626 86.1736 65.5237C85.533 67.2502 84.9821 68.7269 84.6522 69.4155C83.8674 71.0171 83.1179 72.8429 82.3235 74.7808C80.5297 79.1658 78.5086 84.1019 75.6193 87.2025C74.5687 84.8802 76.2215 81.219 77.8263 77.6668C79.7257 73.4675 81.5195 69.4988 79.4535 66.9651C79.1268 66.5646 78.7215 66.2351 78.2626 65.9972C77.8037 65.7592 77.3009 65.6177 76.7853 65.5814C76.1125 65.5302 75.4372 65.64 74.8154 65.9017C75.03 64.0919 75.0396 62.6633 74.511 60.9369C73.7551 58.4737 71.7916 57.0931 69.0882 57.1668C62.9318 57.3462 57.7235 61.933 54.4339 65.7512C52.2429 68.3137 47.387 70.2676 43.1236 71.9812C41.4388 72.6955 39.8372 73.3362 38.5015 73.9768C36.3714 72.1766 33.6648 70.3605 30.814 68.4418C22.8062 63.0669 13.7318 56.9714 13.4179 48.7073C12.9694 36.5002 26.871 27.8422 39.0044 21.6633C48.2006 16.9868 56.1956 13.8862 63.4475 12.1917C73.6334 9.81178 82.237 10.2923 89.0148 13.6139C92.724 15.4301 94.4601 19.3795 93.3582 23.4411C90.4754 33.9954 78.531 41.228 68.3162 44.4824C62.163 46.4427 56.9259 47.2627 52.3006 46.9937C46.5029 46.6573 41.7687 43.7489 39.7443 42.5093C39.42 42.2878 39.077 42.0949 38.7193 41.9327L38.6264 41.9103C38.4431 41.8647 38.2508 41.8704 38.0706 41.9269C37.8903 41.9834 37.7291 42.0885 37.6046 42.2306C37.1882 42.7271 37.3356 43.5119 37.4861 43.9091C39.4561 49.0565 43.524 52.3076 49.5747 53.5729C51.555 53.9694 53.5707 54.1615 55.5902 54.1462C69.7512 54.1462 87.82 45.9815 94.4569 39.2581C98.9829 34.6776 102.279 29.969 103.643 21.8491C105.069 13.3448 99.3032 7.43507 93.4287 4.71241C79.1524 -1.87642 62.9382 0.727723 51.8489 4.07178C38.8763 7.9828 25.4552 15.0937 15.0322 23.5884C2.18129 34.053 -2.46324 43.7681 1.22035 52.4966C5.00324 61.443 14.2282 67.0388 23.1489 72.4521C26.0318 74.1978 28.7736 75.8602 31.2432 77.5771C30.5001 77.939 29.741 78.3074 28.969 78.6758C21.4801 82.3049 12.9854 86.3889 8.27363 93.1379C4.85269 98.0547 4.21207 102.949 6.37098 107.686C7.5241 110.207 9.5741 111.918 12.4217 112.77C13.903 113.189 15.437 113.393 16.9765 113.375C22.5211 113.375 28.6231 111.133 31.9447 109.061C37.8129 105.377 41.615 100.431 43.2486 94.3615C44.7028 88.961 44.3536 83.5958 42.2396 78.8071L49.4306 75.1812C45.9616 86.7124 48.6202 93.5991 51.5414 97.398C52.6177 98.7978 54.5588 99.6402 56.7273 99.6786C58.8958 99.7171 60.8914 98.9003 62.0189 97.5101C64.1521 94.8676 65.7281 91.7766 67.1791 88.6855C67.1022 90.7035 67.1983 92.7471 67.887 94.48C68.5052 96.0399 69.5238 97.0745 70.8371 97.4717C72.2336 97.8977 73.8704 97.539 75.4464 96.4627C82.5477 91.6036 87.4036 79.941 91.305 70.5655C91.8592 69.233 92.3909 67.9517 92.9066 66.7537C93.8718 70.208 95.2146 73.5455 96.9105 76.7058C97.2885 77.3913 97.2564 77.6924 96.7439 78.2562C95.972 79.1018 94.8958 80.1236 93.7554 81.2062C90.3025 84.483 86.0039 88.5734 85.4273 92.1705C85.2031 93.6119 86.1961 94.9252 87.7368 95.2231C92.3717 96.1456 97.9547 94.7971 102.676 91.6196C106.968 88.7368 108.583 84.7169 107.481 79.7072C106.414 74.8833 108.849 68.8934 114.717 61.8914C115.678 65.9049 116.959 69.1497 118.727 71.9908L118.679 72.0293C114.406 75.7609 108.551 80.8699 109.46 87.0679C109.537 87.6574 109.735 88.2245 110.043 88.733C110.351 89.2415 110.761 89.6802 111.248 90.0212C111.768 90.3725 112.355 90.6124 112.973 90.726C113.59 90.8395 114.224 90.8242 114.835 90.6811C120.431 89.5055 124.643 87.1384 127.705 83.4516C130.768 79.7648 129.65 75.6776 128.618 72.5066C136.626 70.3348 143.756 70.3893 150.432 72.6667C154.179 73.948 156.867 76.0524 158.417 78.9576C160.368 82.6124 159.314 85.9853 155.441 88.4549C154.253 89.2141 153.68 89.6785 153.644 90.2647C153.636 90.4007 153.661 90.5366 153.717 90.6609C153.773 90.7853 153.858 90.8944 153.965 90.979C154.413 91.3473 155.797 91.9879 158.926 90.018C161.809 88.2083 163.5 85.7451 163.933 82.6508C164.02 81.7978 164.019 80.938 163.929 80.0851ZM35.891 88.1122L35.8589 88.5222C35.3593 93.2115 32.9761 97.2987 28.764 100.694C26.1182 102.827 23.245 104.137 20.6761 104.387C18.8824 104.56 17.5787 104.317 16.8036 103.66C16.2238 103.17 15.9131 102.437 15.8426 101.418C15.3173 93.2564 28.117 85.1461 35.3208 82.4779C35.8349 84.3089 36.0278 86.2152 35.891 88.1122ZM68.675 65.0945C67.4898 71.8499 64.0336 84.6015 58.6011 89.5504C58.3417 89.7874 58.1239 89.8707 58.0246 89.8483C57.9253 89.8258 57.8484 89.7073 57.7683 89.5279C55.9554 85.3254 56.6248 78.2273 59.3699 72.6507C61.4807 68.3521 64.4949 65.5045 67.8646 64.6429C68.0044 64.6043 68.1487 64.5839 68.2938 64.582C68.4072 64.574 68.5201 64.6045 68.6141 64.6685C68.6537 64.7312 68.6797 64.8016 68.6902 64.875C68.7006 64.9484 68.6955 65.0232 68.675 65.0945ZM95.4179 89.7201C94.3961 90.7868 92.9963 90.6426 93.3262 90.2519L98.5281 84.7297C98.1085 86.6291 96.8689 88.2019 95.4179 89.7201ZM116.997 84.9443C116.503 85.1881 115.967 85.339 115.418 85.3895C115.271 82.4843 118.086 79.2139 120.863 77.0326C121.61 80.0627 120.082 83.2658 116.997 84.9443Z" fill="black"/>
</svg>
